<svg xmlns="http://www.w3.org/2000/svg" xmlns:xlink="http://www.w3.org/1999/xlink" width="140" zoomAndPan="magnify" viewBox="0 0 104.88 37.5" height="50" preserveAspectRatio="xMidYMid meet" version="1.0"><defs><g/></defs><g fill="#ffffff" fill-opacity="1"><g transform="translate(3.065128, 28.125)"><g><path d="M 6.546875 -16.09375 L 9.71875 -16.390625 C 9.71875 -17.015625 9.660156 -17.671875 9.546875 -18.359375 C 9.441406 -19.046875 9.234375 -19.6875 8.921875 -20.28125 C 8.597656 -20.863281 8.140625 -21.335938 7.546875 -21.703125 C 6.960938 -22.078125 6.179688 -22.253906 5.203125 -22.234375 C 4.441406 -22.210938 3.789062 -22.046875 3.25 -21.734375 C 2.71875 -21.429688 2.28125 -21.039062 1.9375 -20.5625 C 1.601562 -20.0625 1.359375 -19.503906 1.203125 -18.890625 C 1.054688 -18.285156 0.984375 -17.679688 0.984375 -17.078125 C 0.984375 -16.484375 1.070312 -15.894531 1.25 -15.3125 C 1.570312 -14.175781 2.101562 -13.039062 2.84375 -11.90625 C 3.195312 -11.351562 3.546875 -10.828125 3.890625 -10.328125 C 4.234375 -9.828125 4.5625 -9.347656 4.875 -8.890625 C 5.03125 -8.671875 5.171875 -8.453125 5.296875 -8.234375 C 5.429688 -8.015625 5.570312 -7.789062 5.71875 -7.5625 C 5.957031 -7.125 6.15625 -6.703125 6.3125 -6.296875 C 6.46875 -5.890625 6.546875 -5.503906 6.546875 -5.140625 C 6.546875 -4.441406 6.445312 -3.863281 6.25 -3.40625 C 6.050781 -2.945312 5.710938 -2.71875 5.234375 -2.71875 C 4.898438 -2.71875 4.628906 -2.828125 4.421875 -3.046875 C 4.222656 -3.265625 4.078125 -3.554688 3.984375 -3.921875 C 3.859375 -4.253906 3.78125 -4.644531 3.75 -5.09375 C 3.71875 -5.550781 3.703125 -6.007812 3.703125 -6.46875 L 0.53125 -6.15625 C 0.53125 -5.34375 0.585938 -4.550781 0.703125 -3.78125 C 0.816406 -3.019531 1.03125 -2.335938 1.34375 -1.734375 C 1.6875 -1.140625 2.160156 -0.660156 2.765625 -0.296875 C 3.378906 0.0546875 4.203125 0.234375 5.234375 0.234375 C 6.109375 0.234375 6.832031 0.0820312 7.40625 -0.21875 C 7.988281 -0.53125 8.453125 -0.9375 8.796875 -1.4375 C 9.140625 -1.957031 9.378906 -2.546875 9.515625 -3.203125 C 9.648438 -3.859375 9.71875 -4.554688 9.71875 -5.296875 C 9.71875 -5.890625 9.628906 -6.472656 9.453125 -7.046875 C 9.273438 -7.617188 9.046875 -8.179688 8.765625 -8.734375 C 8.484375 -9.296875 8.160156 -9.851562 7.796875 -10.40625 C 7.441406 -10.96875 7.078125 -11.53125 6.703125 -12.09375 C 6.378906 -12.550781 6.066406 -13 5.765625 -13.4375 C 5.472656 -13.875 5.207031 -14.300781 4.96875 -14.71875 C 4.726562 -15.132812 4.53125 -15.535156 4.375 -15.921875 C 4.226562 -16.316406 4.15625 -16.703125 4.15625 -17.078125 C 4.15625 -17.722656 4.234375 -18.242188 4.390625 -18.640625 C 4.554688 -19.035156 4.847656 -19.242188 5.265625 -19.265625 C 5.523438 -19.265625 5.738281 -19.171875 5.90625 -18.984375 C 6.070312 -18.796875 6.207031 -18.550781 6.3125 -18.25 C 6.414062 -17.9375 6.476562 -17.585938 6.5 -17.203125 C 6.53125 -16.828125 6.546875 -16.457031 6.546875 -16.09375 Z M 6.546875 -16.09375 "/></g></g></g><g fill="#ffffff" fill-opacity="1"><g transform="translate(13.326853, 28.125)"><g><path d="M 9.609375 -4.515625 L 9.609375 -17.46875 C 9.566406 -18.375 9.382812 -19.164062 9.0625 -19.84375 C 8.925781 -20.132812 8.753906 -20.425781 8.546875 -20.71875 C 8.335938 -21.007812 8.082031 -21.265625 7.78125 -21.484375 C 7.476562 -21.703125 7.125 -21.878906 6.71875 -22.015625 C 6.3125 -22.160156 5.835938 -22.234375 5.296875 -22.234375 C 4.753906 -22.234375 4.273438 -22.160156 3.859375 -22.015625 C 3.441406 -21.878906 3.082031 -21.703125 2.78125 -21.484375 C 2.476562 -21.265625 2.226562 -21.007812 2.03125 -20.71875 C 1.832031 -20.425781 1.664062 -20.132812 1.53125 -19.84375 C 1.207031 -19.164062 1.023438 -18.375 0.984375 -17.46875 L 0.984375 -4.515625 C 1.023438 -3.597656 1.207031 -2.800781 1.53125 -2.125 C 1.664062 -1.820312 1.832031 -1.53125 2.03125 -1.25 C 2.226562 -0.976562 2.476562 -0.734375 2.78125 -0.515625 C 3.394531 -0.015625 4.234375 0.234375 5.296875 0.234375 C 6.335938 0.234375 7.164062 -0.015625 7.78125 -0.515625 C 8.082031 -0.734375 8.335938 -0.976562 8.546875 -1.25 C 8.753906 -1.53125 8.925781 -1.820312 9.0625 -2.125 C 9.382812 -2.800781 9.566406 -3.597656 9.609375 -4.515625 Z M 6.375 -17.46875 L 6.375 -4.515625 C 6.375 -4.160156 6.332031 -3.890625 6.25 -3.703125 C 6.1875 -3.484375 6.082031 -3.296875 5.9375 -3.140625 C 5.789062 -2.984375 5.578125 -2.90625 5.296875 -2.90625 C 5.035156 -2.90625 4.828125 -2.984375 4.671875 -3.140625 C 4.367188 -3.484375 4.21875 -3.941406 4.21875 -4.515625 L 4.21875 -17.46875 C 4.21875 -17.789062 4.257812 -18.0625 4.34375 -18.28125 C 4.394531 -18.476562 4.492188 -18.660156 4.640625 -18.828125 C 4.796875 -19.003906 5.015625 -19.09375 5.296875 -19.09375 C 5.578125 -19.09375 5.796875 -19.007812 5.953125 -18.84375 C 6.234375 -18.507812 6.375 -18.050781 6.375 -17.46875 Z M 6.375 -17.46875 "/></g></g></g><g fill="#ffffff" fill-opacity="1"><g transform="translate(23.917671, 28.125)"><g><path d="M 8.890625 -18.671875 L 8.890625 -22 L 1.203125 -22 L 1.203125 0 L 4.421875 0 L 4.421875 -9.578125 L 7.421875 -9.578125 L 7.421875 -12.890625 L 4.421875 -12.890625 L 4.421875 -18.671875 Z M 8.890625 -18.671875 "/></g></g></g><g fill="#ffffff" fill-opacity="1"><g transform="translate(32.922857, 28.125)"><g><path d="M 1.203125 -22 L 1.203125 0 L 4.421875 0 L 4.421875 -22 Z M 1.203125 -22 "/></g></g></g><g fill="#ffffff" fill-opacity="1"><g transform="translate(38.547364, 28.125)"><g><path d="M 0.296875 0 L 3.4375 0 L 4.046875 -4.484375 L 7.15625 -4.484375 L 7.75 0 L 10.890625 0 L 7.5625 -22 L 3.625 -22 Z M 5.78125 -14.84375 L 6.703125 -7.90625 L 4.484375 -7.90625 L 5.421875 -14.84375 L 5.5 -15.40625 L 5.6875 -15.40625 Z M 5.78125 -14.84375 "/></g></g></g><g fill="#ffffff" fill-opacity="1"><g transform="translate(49.736534, 28.125)"><g/></g></g><g fill="#ffffff" fill-opacity="1"><g transform="translate(54.343835, 28.125)"><g><path d="M 5.828125 0 L 7.328125 -10.40625 L 7.515625 -11.703125 L 7.625 -11.703125 L 7.8125 -10.40625 L 9.3125 0 L 11.8125 0 L 14.78125 -22 L 11.796875 -22 L 10.5 -10.5625 L 10.4375 -9.84375 L 10.203125 -9.84375 L 10.109375 -10.5625 L 8.734375 -22 L 6.40625 -22 L 5.03125 -10.5625 L 4.9375 -9.84375 L 4.703125 -9.84375 L 4.640625 -10.5625 L 3.34375 -22 L 0.359375 -22 L 3.328125 0 Z M 5.828125 0 "/></g></g></g><g fill="#ffffff" fill-opacity="1"><g transform="translate(69.48212, 28.125)"><g><path d="M 9.609375 -4.515625 L 9.609375 -17.46875 C 9.566406 -18.375 9.382812 -19.164062 9.0625 -19.84375 C 8.925781 -20.132812 8.753906 -20.425781 8.546875 -20.71875 C 8.335938 -21.007812 8.082031 -21.265625 7.78125 -21.484375 C 7.476562 -21.703125 7.125 -21.878906 6.71875 -22.015625 C 6.3125 -22.160156 5.835938 -22.234375 5.296875 -22.234375 C 4.753906 -22.234375 4.273438 -22.160156 3.859375 -22.015625 C 3.441406 -21.878906 3.082031 -21.703125 2.78125 -21.484375 C 2.476562 -21.265625 2.226562 -21.007812 2.03125 -20.71875 C 1.832031 -20.425781 1.664062 -20.132812 1.53125 -19.84375 C 1.207031 -19.164062 1.023438 -18.375 0.984375 -17.46875 L 0.984375 -4.515625 C 1.023438 -3.597656 1.207031 -2.800781 1.53125 -2.125 C 1.664062 -1.820312 1.832031 -1.53125 2.03125 -1.25 C 2.226562 -0.976562 2.476562 -0.734375 2.78125 -0.515625 C 3.394531 -0.015625 4.234375 0.234375 5.296875 0.234375 C 6.335938 0.234375 7.164062 -0.015625 7.78125 -0.515625 C 8.082031 -0.734375 8.335938 -0.976562 8.546875 -1.25 C 8.753906 -1.53125 8.925781 -1.820312 9.0625 -2.125 C 9.382812 -2.800781 9.566406 -3.597656 9.609375 -4.515625 Z M 6.375 -17.46875 L 6.375 -4.515625 C 6.375 -4.160156 6.332031 -3.890625 6.25 -3.703125 C 6.1875 -3.484375 6.082031 -3.296875 5.9375 -3.140625 C 5.789062 -2.984375 5.578125 -2.90625 5.296875 -2.90625 C 5.035156 -2.90625 4.828125 -2.984375 4.671875 -3.140625 C 4.367188 -3.484375 4.21875 -3.941406 4.21875 -4.515625 L 4.21875 -17.46875 C 4.21875 -17.789062 4.257812 -18.0625 4.34375 -18.28125 C 4.394531 -18.476562 4.492188 -18.660156 4.640625 -18.828125 C 4.796875 -19.003906 5.015625 -19.09375 5.296875 -19.09375 C 5.578125 -19.09375 5.796875 -19.007812 5.953125 -18.84375 C 6.234375 -18.507812 6.375 -18.050781 6.375 -17.46875 Z M 6.375 -17.46875 "/></g></g></g><g fill="#ffffff" fill-opacity="1"><g transform="translate(80.072938, 28.125)"><g><path d="M 9.609375 -4.515625 L 9.609375 -17.46875 C 9.566406 -18.375 9.382812 -19.164062 9.0625 -19.84375 C 8.925781 -20.132812 8.753906 -20.425781 8.546875 -20.71875 C 8.335938 -21.007812 8.082031 -21.265625 7.78125 -21.484375 C 7.476562 -21.703125 7.125 -21.878906 6.71875 -22.015625 C 6.3125 -22.160156 5.835938 -22.234375 5.296875 -22.234375 C 4.753906 -22.234375 4.273438 -22.160156 3.859375 -22.015625 C 3.441406 -21.878906 3.082031 -21.703125 2.78125 -21.484375 C 2.476562 -21.265625 2.226562 -21.007812 2.03125 -20.71875 C 1.832031 -20.425781 1.664062 -20.132812 1.53125 -19.84375 C 1.207031 -19.164062 1.023438 -18.375 0.984375 -17.46875 L 0.984375 -4.515625 C 1.023438 -3.597656 1.207031 -2.800781 1.53125 -2.125 C 1.664062 -1.820312 1.832031 -1.53125 2.03125 -1.25 C 2.226562 -0.976562 2.476562 -0.734375 2.78125 -0.515625 C 3.394531 -0.015625 4.234375 0.234375 5.296875 0.234375 C 6.335938 0.234375 7.164062 -0.015625 7.78125 -0.515625 C 8.082031 -0.734375 8.335938 -0.976562 8.546875 -1.25 C 8.753906 -1.53125 8.925781 -1.820312 9.0625 -2.125 C 9.382812 -2.800781 9.566406 -3.597656 9.609375 -4.515625 Z M 6.375 -17.46875 L 6.375 -4.515625 C 6.375 -4.160156 6.332031 -3.890625 6.25 -3.703125 C 6.1875 -3.484375 6.082031 -3.296875 5.9375 -3.140625 C 5.789062 -2.984375 5.578125 -2.90625 5.296875 -2.90625 C 5.035156 -2.90625 4.828125 -2.984375 4.671875 -3.140625 C 4.367188 -3.484375 4.21875 -3.941406 4.21875 -4.515625 L 4.21875 -17.46875 C 4.21875 -17.789062 4.257812 -18.0625 4.34375 -18.28125 C 4.394531 -18.476562 4.492188 -18.660156 4.640625 -18.828125 C 4.796875 -19.003906 5.015625 -19.09375 5.296875 -19.09375 C 5.578125 -19.09375 5.796875 -19.007812 5.953125 -18.84375 C 6.234375 -18.507812 6.375 -18.050781 6.375 -17.46875 Z M 6.375 -17.46875 "/></g></g></g><g fill="#ffffff" fill-opacity="1"><g transform="translate(90.663755, 28.125)"><g><path d="M 1.203125 0 L 3.734375 0 C 5.234375 0 6.410156 -0.164062 7.265625 -0.5 C 8.128906 -0.84375 8.78125 -1.4375 9.21875 -2.28125 C 9.632812 -3.113281 9.894531 -4.234375 10 -5.640625 C 10.113281 -7.046875 10.171875 -8.828125 10.171875 -10.984375 C 10.171875 -13.140625 10.113281 -14.925781 10 -16.34375 C 9.894531 -17.757812 9.632812 -18.882812 9.21875 -19.71875 C 8.78125 -20.550781 8.128906 -21.140625 7.265625 -21.484375 C 6.410156 -21.828125 5.234375 -22 3.734375 -22 L 1.203125 -22 Z M 4.421875 -3.234375 L 4.421875 -18.765625 C 4.984375 -18.765625 5.425781 -18.695312 5.75 -18.5625 C 6.082031 -18.4375 6.332031 -18.113281 6.5 -17.59375 C 6.570312 -17.332031 6.632812 -17.003906 6.6875 -16.609375 C 6.738281 -16.222656 6.773438 -15.773438 6.796875 -15.265625 C 6.816406 -14.742188 6.828125 -14.128906 6.828125 -13.421875 C 6.828125 -12.710938 6.828125 -11.910156 6.828125 -11.015625 C 6.828125 -10.117188 6.828125 -9.316406 6.828125 -8.609375 C 6.828125 -7.898438 6.816406 -7.285156 6.796875 -6.765625 C 6.773438 -6.242188 6.738281 -5.785156 6.6875 -5.390625 C 6.632812 -5.003906 6.570312 -4.679688 6.5 -4.421875 C 6.332031 -3.890625 6.082031 -3.554688 5.75 -3.421875 C 5.425781 -3.296875 4.984375 -3.234375 4.421875 -3.234375 Z M 4.421875 -3.234375 "/></g></g></g></svg>